<?xml version="1.0" encoding="UTF-8"?>
<!-- Created with Inkscape (http://www.inkscape.org/) -->
<svg width="409.6" height="409.6" version="1.1" viewBox="0 0 409.6 409.6" xmlns="http://www.w3.org/2000/svg" xmlns:cc="http://creativecommons.org/ns#" xmlns:dc="http://purl.org/dc/elements/1.1/" xmlns:rdf="http://www.w3.org/1999/02/22-rdf-syntax-ns#">
 <metadata>
  <rdf:RDF>
   <cc:Work rdf:about="">
    <dc:format>image/svg+xml</dc:format>
    <dc:type rdf:resource="http://purl.org/dc/dcmitype/StillImage"/>
    <dc:title/>
   </cc:Work>
  </rdf:RDF>
 </metadata>
 <g stroke-width=".32">
  <path d="m195.28 404.77c-38.68-2.3371-75.377-17.306-104.24-42.52-17.942-15.674-32.132-34.27-42.532-55.739-21.372-44.12-23.152-95.074-4.9167-140.73 2.7013-6.7638 6.3566-14.445 9.6554-20.289 1.3381-2.3705 2.4328-4.4613 2.4328-4.6461s-8.928-7.6997-19.84-16.7c-12.068-9.9537-19.759-16.508-19.634-16.733 0.7897-1.4143 9.1873-12.886 12.052-16.463 9.0963-11.36 22.431-25.26 32.062-33.421 35.296-29.909 74.598-46.989 120.16-52.219 10.135-1.1634 27.794-1.5401 38.02-0.81097 51.764 3.6908 98.743 23.5 137.02 57.778 7.9939 7.1586 19.221 19.052 25.645 27.167 4.9851 6.2975 12.115 16.299 12.115 16.995 0 0.21944-8.712 7.8329-19.36 16.919s-19.36 16.624-19.36 16.751c0 0.12717 1.0204 2.0277 2.2676 4.2234 13.019 22.92 20.513 47.921 22.393 74.703 0.48653 6.9315 0.22854 22.614-0.48186 29.289-1.678 15.768-5.4016 31.215-10.992 45.6-13.202 33.969-36.778 62.895-67.747 83.119-30.671 20.03-68.108 29.943-104.72 27.731z" fill="#026738"/>
  <path d="m216.16 400c37.044-2.4298 71.615-16.548 99.68-40.707 32.656-28.111 53.362-67.336 58.071-110.01 2.0564-18.634 0.91974-38.505-3.2308-56.48-7.3882-31.996-23.302-60.394-46.73-83.389-13.447-13.198-27.687-23.227-44.751-31.515-28.398-13.794-59.484-19.308-90.907-16.124-46.404 4.7013-87.96 27.8-117.13 65.108-13.038 16.673-23.358 37.261-29.197 58.24-5.8749 21.111-7.5948 43.815-4.9817 65.76 7.0137 58.901 44.698 110.14 99.018 134.64 17.723 7.9928 37.965 13.064 57.6 14.43 5.6553 0.39344 16.905 0.41584 22.56 0.0449z" fill="#fff"/>
  <path d="m197.44 393.9c-40.456-1.8428-78.89-18.911-107.68-47.82-14.29-14.349-25.44-30.556-33.637-48.892-14.306-32.001-17.869-68.756-9.9956-103.11 6.1494-26.833 18.78-51.396 36.94-71.84 23.02-25.915 52.987-43.63 86.533-51.153 19.062-4.2746 39.864-5.0758 59.188-2.2796 31.119 4.5027 60.11 17.824 83.852 38.53 23.639 20.616 40.903 47.646 49.609 77.67 4.3381 14.961 6.39 29.6 6.3851 45.552-4e-3 14.117-1.3817 25.69-4.6525 39.093-11.036 45.222-41.099 83.737-82.382 105.54-21.677 11.448-44.2 17.562-68.96 18.719-7.3142 0.34176-7.4638 0.34166-15.2-0.0109z" fill="#026738"/>
  <path d="m206.31 384.32c0.74507-0.32921 1.8688-0.99068 2.4972-1.47l1.1425-0.87142 1.5138 1.4911c1.6038 1.5797 2.3992 1.847 2.7702 0.93107 0.12475-0.308 0.57002-1.4576 0.98948-2.5547l0.76266-1.9946-1.4352-1.616c-0.78939-0.8888-1.4352-1.6602-1.4352-1.7142 0-0.054 0.27036-1.1652 0.60081-2.4693 0.33045-1.3042 0.70334-3.6308 0.82864-5.1702 0.25846-3.1752 0.42047-2.9716-2.5818-3.2441-2.658-0.24115-3.0261 0.0746-3.2434 2.7822-0.0945 1.1775-0.26856 2.1409-0.38675 2.1409s-1.0517-1.4466-2.0744-3.2147l-1.8596-3.2148 1.9734-1.7859c2.823-2.5547 3.6322-4.2864 3.7873-8.1047 0.11504-2.833 0.0619-3.1597-0.78038-4.798-1.7718-3.4464-5.1984-4.6967-8.7199-3.1818-2.1421 0.9215-3.9481 3.1028-4.5107 5.4479-0.52699 2.1967-0.24159 5.9644 0.65745 8.6794l0.7111 2.1474-1.4813 1.6476c-0.8147 0.90615-1.9491 2.6038-2.5209 3.7725-0.99072 2.025-1.0394 2.2981-1.0348 5.805 5e-3 4.2088 0.4703 5.6501 2.5724 7.9769 2.9773 3.2955 7.3655 4.3022 11.257 2.5824z" fill="#fff"/>
  <path d="m201.67 379.5c-2.2442-0.48157-3.3071-2.2605-3.3201-5.5564-7e-3 -1.7046 0.17973-2.7605 0.70144-3.9733 0.39079-0.90845 0.81392-1.6517 0.94028-1.6517 0.12635 0 0.61118 0.70086 1.0774 1.5574 0.46622 0.85661 1.7805 2.9806 2.9206 4.72l2.0729 3.1626-0.71908 0.72208c-0.91293 0.91674-2.3253 1.3087-3.6735 1.0194z" fill="#026738"/>
  <path d="m202.13 358.48c-0.4077-0.68259-0.86425-4.0222-0.68239-4.9916 0.22734-1.2119 1.1881-2.4484 1.9023-2.4484 0.75202 0 1.4457 1.3442 1.4457 2.8015 0 2.4589-1.9454 5.8443-2.6656 4.6385z" fill="#026738"/>
  <path d="m236.56 381.55c1.0973-0.29293 2.1812-0.7001 2.4086-0.90484 0.33434-0.30108 0.0476-1.7749-1.4995-7.7074-1.0521-4.0343-1.9581-7.6137-2.0134-7.9541-0.0793-0.48832 0.20333-0.70842 1.3395-1.0432 0.792-0.23335 1.5984-0.36368 1.792-0.28957 0.19358 0.0741 2.6208 3.333 5.3938 7.242l5.0419 7.1074 1.3262-0.18688c2.4014-0.33843 4.6862-1.1633 4.6862-1.6919 0-0.27293-2.376-3.7954-5.28-7.8276-2.904-4.0323-5.28-7.4288-5.28-7.5479s0.50001-0.9471 1.1111-1.84c1.6054-2.3456 2.2041-4.9788 1.7617-7.7484-0.66935-4.1899-2.3324-6.7484-5.4982-8.4586-1.8858-1.0188-2.1986-1.0863-4.8946-1.0575-2.3492 0.0253-3.8236 0.28979-8 1.4359-4.7885 1.3141-5.1257 1.4569-5.2078 2.2051-0.0773 0.70457 8.9494 35.803 9.3922 36.519 0.25548 0.41338 1.1841 0.34496 3.4205-0.25196z" fill="#fff"/>
  <path d="m233.31 357.2c-0.17283-0.66-0.74608-2.8267-1.2739-4.815l-0.95965-3.6149 0.75492-0.28704c2.0451-0.77753 4.5972-1.0797 5.8782-0.6959 2.7231 0.81587 4.2997 4.4293 3.1342 7.1831-0.62286 1.4716-1.3536 1.9967-3.8379 2.7577-3.058 0.9368-3.3222 0.89904-3.6959-0.52797z" fill="#026738"/>
  <g fill="#fff">
   <path d="m174.33 381.36c0.178-0.22 2.5829-8.5196 5.3442-18.444 4.1511-14.919 4.947-18.114 4.5956-18.449-0.23377-0.22314-1.5017-0.70573-2.8177-1.0724-1.8984-0.52896-2.4726-0.58487-2.7798-0.27076-0.21295 0.21776-1.119 3.0599-2.0134 6.3159s-1.758 6.2298-1.9189 6.6084l-0.29263 0.68842-3.9368-1.1106c-2.1652-0.61082-3.9802-1.154-4.0333-1.2071-0.0531-0.0531 0.70085-2.9687 1.6755-6.479 0.97464-3.5103 1.7721-6.6867 1.7721-7.0586 0-0.54775-0.34944-0.77783-1.84-1.2115-3.0761-0.89504-3.8167-0.9424-4.1717-0.26688-0.46176 0.87868-9.9883 35.417-9.9883 36.212 0 0.5607 0.37855 0.7903 2.1945 1.3311 2.6848 0.79956 3.4554 0.81834 3.8406 0.0935 0.16368-0.308 1.2636-4.088 2.4442-8.4 1.1806-4.312 2.2671-7.9682 2.4145-8.1249 0.39871-0.42384 7.9862 1.7788 7.9862 2.3183 0 0.2393-1.0348 4.1657-2.2996 8.7253-1.5623 5.6322-2.195 8.3947-1.9733 8.6164 0.3331 0.33312 4.0114 1.483 4.9537 1.5486 0.28645 0.0198 0.66645-0.14374 0.84445-0.36374z"/>
   <path d="m274.24 368c7.3062-3.6549 8.9578-4.6006 8.9578-5.1292 0-0.99965-1.8693-4.4698-2.4078-4.4698-0.26322 0-3.2117 1.368-6.5522 3.04s-6.1852 3.04-6.3216 3.04c-0.26765 0-5.1984-9.7165-5.1984-10.244 0-0.1752 2.3731-1.5025 5.2735-2.9496 2.9004-1.447 5.3466-2.8216 5.436-3.0546 0.19725-0.51405-1.9469-4.8719-2.3971-4.8719-0.17574 0-2.753 1.2183-5.7273 2.7074-4.0566 2.0309-5.4858 2.6106-5.7203 2.32-0.47301-0.58627-3.9049-7.5296-3.9049-7.9004 0-0.17799 2.598-1.6241 5.7732-3.2136 3.1753-1.5895 5.8489-3.0873 5.9414-3.3284 0.17854-0.46525-1.6458-4.3574-2.2116-4.7183-0.42771-0.27283-17.471 8.2376-17.702 8.8393-0.24379 0.63527 16.79 34.414 17.354 34.414 0.24701 0 4.4801-2.0165 9.4069-4.4811z"/>
   <path d="m141.75 368.13c2.2418-0.66573 3.6571-1.5942 5.6265-3.6909 2.0647-2.1981 4.4022-5.6406 4.1956-6.1789-0.20399-0.53162-4.2116-2.7432-4.9709-2.7432-0.36729 0-1.1785 0.92553-2.2409 2.5565-1.8778 2.883-3.4662 4.1635-5.1645 4.1635-3.2513 0-4.4128-3.7783-2.7157-8.8341 2.8169-8.3913 8.5738-15.486 12.566-15.486 1.8154 0 3.2747 1.3104 3.2689 2.9354-4e-3 1.2127-0.64391 3.7012-1.4018 5.4543-0.2829 0.65433-0.51436 1.4007-0.51436 1.6586 0 0.46105 3.9143 2.7517 4.7022 2.7517 0.87312 0 2.5018-3.6409 3.0021-6.7111 0.34302-2.1052-0.10407-5.3236-0.97731-7.0353-0.79503-1.5584-2.5956-3.1157-4.735-4.0951-5.1996-2.3805-11.975 1.053-17.05 8.64-3.8143 5.7025-5.7419 10.946-5.7419 15.619 0 8.1081 5.4048 12.999 12.151 10.996z"/>
   <path d="m117.06 355.92c0.158-0.308 1.5579-4.2492 3.1108-8.7584l2.8236-8.1983 2.5178-0.17257c1.8103-0.1241 3.002-0.40951 4.2413-1.0158 2.0806-1.018 4.5858-3.6625 5.7782-6.0997 0.77859-1.5914 0.84918-2.0235 0.71875-4.3999-0.16317-2.9731-0.80829-4.5458-2.749-6.7018-1.2533-1.3923-8.9218-7.9369-9.2901-7.9285-0.11882 3e-3 -0.37765 0.11069-0.57518 0.24-0.88517 0.57945-24.121 28.726-24.121 29.219 0 0.75386 3.6724 3.8952 4.3923 3.7571 0.31226-0.0599 2.7997-2.7976 5.5277-6.0837 2.728-3.2861 5.176-5.9784 5.44-5.983 0.264-4e-3 0.96908 0.40995 1.5668 0.92112l1.0868 0.92941-2.9092 8.4839c-3.3009 9.626-3.279 8.5769-0.23031 11.055 1.7632 1.4334 2.2448 1.5661 2.6706 0.73594z"/>
  </g>
  <path d="m123.04 332.34c-0.528-0.23705-1.7315-1.1314-2.6744-1.9874l-1.7144-1.5564 3.089-3.68c1.699-2.024 3.2793-3.7229 3.5119-3.7753 0.7005-0.15785 3.915 3.0268 4.4797 4.4381 0.66487 1.6617 0.26791 3.3396-1.1803 4.989-1.6606 1.8913-3.5808 2.4389-5.5115 1.572z" fill="#026738"/>
  <path d="m298.24 352.4c2.0628-0.98199 4.7352-3.5325 5.8041-5.5393 0.64008-1.2018 0.75403-1.8756 0.75348-4.4559-6.4e-4 -2.7118-0.0977-3.2245-0.89914-4.7489-1.1453-2.1783-3.1863-4.3952-4.8441-5.2615-1.4527-0.75917-2.2913-0.78858-11.109-0.38938-5.085 0.23021-5.4017 0.20899-6.7702-0.4535-1.7869-0.86503-2.6107-2.3756-2.3511-4.3113 0.46959-3.5018 5.0562-4.1534 7.1153-1.0107 0.29381 0.44839 0.77172 0.81527 1.062 0.81527 0.70405 0 4.5186-3.1068 4.5186-3.6802 0-0.7623-3.268-3.8306-4.96-4.6569-2.2068-1.0776-5.4646-1.084-7.52-0.0148-2.5385 1.3206-4.0671 2.8009-5.0803 4.9203-1.9044 3.9833-1.5535 7.7032 1.0252 10.866 3.0203 3.7051 5.1727 4.2711 14.2 3.7342 7.1961-0.42797 7.687-0.29943 9.0101 2.3588 1.0417 2.0928 0.76019 3.4782-1.062 5.2269-2.3904 2.294-4.4737 2.0723-7.0851-0.75404-1.2108-1.3104-1.7536-1.6933-2.1031-1.4835-1.2424 0.74567-4.1049 3.1951-4.1049 3.5126 0 0.67641 2.2532 3.3086 3.6619 4.2778 1.7425 1.1989 2.766 1.6096 4.8181 1.9334 2.1994 0.34711 3.8484 0.10039 5.92-0.88582z" fill="#fff"/>
  <path d="m104.89 320.46c6.3858-8.2628 11.766-15.332 11.956-15.709 0.29439-0.58466 0.14825-0.94737-0.98819-2.4526-0.73352-0.97154-1.5405-1.8458-1.7934-1.9428-0.25284-0.097-8.1052 3.2053-17.45 7.3386-18.973 8.3918-18.855 8.3368-18.855 8.8455 0 0.56385 2.9723 4.3831 3.5663 4.5826 0.28944 0.0972 2.5838-0.76422 5.0986-1.9142 2.5148-1.15 4.687-2.0909 4.8271-2.0909 0.28618 0 4.1081 4.759 4.1081 5.1154 0 0.12569-1.44 2.0646-3.2 4.3088-1.76 2.2442-3.2 4.1778-3.2 4.2969 0 0.69514 3.4993 4.8964 3.9608 4.7552 0.19759-0.0605 5.584-6.8704 11.97-15.133z" fill="#fff"/>
  <path d="m97.949 315.88c-0.74464-0.94018-0.88758-1.3152-0.58689-1.54 0.59836-0.44726 6.3583-3.0429 6.4808-2.9205 0.17457 0.17457-4.3027 5.7034-4.6187 5.7034-0.15996 0-0.7338-0.5593-1.2752-1.2429z" fill="#026738"/>
  <path d="m320.68 330.19c1.958-0.84234 4.1989-3.2675 4.8881-5.2901 1.0759-3.1575 0.44685-6.6987-1.755-9.8798-1.6928-2.4457-4.7592-5.5814-5.458-5.5814-0.55781 0-3.7976 3.8018-3.7976 4.4564 0 0.20111 0.9918 1.3575 2.204 2.5696 2.6714 2.6714 3.5084 4.4591 2.9209 6.2391-1.086 3.2908-5.6451 2.9965-11.099-0.71623-5.618-3.8246-10.085-9.1337-10.778-12.809-0.44276-2.3488 1.5568-4.5118 3.7355-4.041 1.2539 0.27101 3.881 1.5759 5.2068 2.5863 0.54462 0.41503 1.1424 0.7546 1.3283 0.7546 0.49197 0 3.6015-3.6782 3.6015-4.2602 0-0.27129-0.54-0.94185-1.2-1.4901-2.8409-2.36-7.5683-3.8757-10.641-3.4117-3.0295 0.45741-6.1486 3.0643-7.2542 6.0631-0.54548 1.4795-0.5035 5.2703 0.0806 7.2808 1.7875 6.1525 10.667 14.874 17.75 17.436 3.4469 1.2465 7.5007 1.2834 10.267 0.0933z" fill="#fff"/>
  <path d="m213.92 330.55c13.439-1.2593 24.347-4.3157 35.891-10.056 15.554-7.7349 28.487-18.991 38.255-33.293 9.16-13.413 14.432-27.34 16.778-44.32 0.69038-4.9973 0.79412-18.078 0.18272-23.04-2.3481-19.058-8.5843-34.797-19.59-49.44-9.9774-13.275-21.73-22.902-36.956-30.272-13.802-6.6812-27.159-9.6917-43.04-9.701-12.283-7e-3 -21.314 1.4579-32.512 5.2748-14.586 4.9717-26.852 12.643-38.079 23.813-11.668 11.609-19.227 23.707-24.498 39.205-5.0738 14.918-6.4706 31.936-3.9352 47.941 4.7712 30.118 23.407 56.604 50.544 71.836 11.322 6.3551 25.498 10.713 39.118 12.026 4.0801 0.39334 13.772 0.40762 17.842 0.0262z" fill="#fff"/>
  <path d="m126.98 282c-3.5387-4.68-7.5939-12.534-9.8203-19.021-2.5557-7.4454-4.3737-16.091-5.1803-24.636-0.49648-5.2596-0.22209-19.674 0.45981-24.155 0.96722-6.3556 2.5979-13.244 3.8313-16.184l0.43796-1.0441 0.60463 1.0713c2.7716 4.9107 7.0246 10.289 8.1366 10.289 0.37969 0 3.305-3.2732 8.2633-9.2459 4.2216-5.0852 7.8211-9.3359 7.9991-9.4459s1.3952 0.45069 2.7051 1.2459c1.3099 0.79524 2.6513 1.4404 2.981 1.4336 0.3931-8e-3 3.0231-3.0309 7.6395-8.7805 3.872-4.8225 7.2014-8.777 7.3987-8.7877 0.19731-0.0107 1.4411 0.84451 2.764 1.9005 1.3229 1.056 2.6093 1.92 2.8586 1.92s5.2473-6.5582 11.107-14.574c7.9255-10.842 10.753-14.491 11.044-14.249 0.21505 0.17848 1.6773 1.8443 3.2494 3.7018 1.6164 1.9099 3.0616 3.3382 3.3262 3.2872 0.25731-0.0495 2.9132-3.5122 5.9019-7.6947 4.2775-5.9861 5.5144-7.5181 5.8117-7.198 0.20769 0.22368 5.3123 7.5707 11.344 16.327 6.0312 8.756 11.164 15.92 11.407 15.92s1.7313-0.648 3.3082-1.44c1.577-0.792 3.0032-1.44 3.1695-1.44 0.16627 0 1.9916 2.772 4.0562 6.16 2.0646 3.388 4.0988 6.628 4.5204 7.2l0.76646 1.04h8.97l5.0187 4.7017c2.7603 2.5859 6.1891 5.8259 7.6196 7.2 1.4305 1.3741 2.8141 2.4983 3.0747 2.4983s0.99965-0.792 1.6424-1.76 1.2815-1.76 1.4196-1.76 0.78589 0.70143 1.4397 1.5587c0.65379 0.8573 2.4116 2.7328 3.9063 4.1677l2.7176 2.609-0.88053 0.32178c-0.48429 0.17697-1.0605 0.38498-1.2805 0.46224-0.22 0.0773-0.4 0.36612-0.4 0.64193 0 0.72457 3.6618 6.4977 6.0067 9.4699 2.2418 2.8416 2.1894 3.0845-0.58577 2.7164-1.9147-0.25399-2.3211 0.27246-1.4265 1.848 1.3464 2.3714 5.3412 8.1395 6.3874 9.223 0.62599 0.64825 1.1382 1.2602 1.1382 1.36 0 0.0997-1.008 0.18136-2.24 0.18136-1.9539 0-2.24 0.0745-2.24 0.58318 0 0.83179 3.3006 6.046 5.8292 9.2086 2.401 3.0031 2.4312 2.9167-0.94911 2.7161-0.97444-0.0578-1.4127 0.0568-1.546 0.4043-0.20756 0.54092 0.87515 2.5689 2.9605 5.5451 0.762 1.0875 1.3855 2.0791 1.3855 2.2035 0 0.12439-0.6533 0.13661-1.4518 0.0272-1.1568-0.15856-1.4915-0.0955-1.6473 0.31047-0.26766 0.6975 0.91312 3.0254 2.3302 4.5939 0.99255 1.0986 1.1447 1.4593 0.99767 2.3652-0.29129 1.795-2.7137 7.606-4.0391 9.689l-1.2513 1.9666-3.6292 0.18697c-5.1822 0.26698-34.867 0.90862-35.019 0.75694-0.0697-0.0697 1.1212-1.1956 2.6464-2.5019 3.2898-2.8177 9.0632-9.1241 9.0632-9.8999 0-0.48504-0.33092-0.53118-2.96-0.41275-1.628 0.0733-3.1626-5e-3 -3.4101-0.17446-0.36521-0.24973-0.14669-0.7814 1.1582-2.8179 2.6952-4.2064 7.0002-13.238 6.6924-14.04-0.10252-0.26715-1.0631-0.33129-3.3283-0.22221-2.203 0.10609-3.2542 0.04-3.4115-0.21443-0.13075-0.21156 0.41265-1.0783 1.2794-2.0407 3.0263-3.3602 8.7798-12.907 8.7798-14.569 0-0.64275-0.11299-0.66976-2.0464-0.48922-1.1255 0.1051-2.4287 0.0951-2.8961-0.0222l-0.84973-0.21327 1.4097-1.6699c3.6843-4.3642 9.2884-13.022 8.9686-13.855-0.123-0.32054-0.6611-0.37903-2.1811-0.23709-1.1098 0.10363-2.4125 0.0893-2.895-0.0317l-0.87719-0.22016 0.79448-0.86297c1.2457-1.3531 1.8526-2.385 1.8526-3.15 0-0.50253-1.4916-2.0664-5.2-5.4519-2.86-2.611-5.745-5.2139-6.4111-5.7842l-1.2111-1.037h-8.8887l-5.0382-7.84c-3.5097-5.4614-5.2126-7.84-5.6132-7.84-0.31621 0-1.6851 0.67401-3.042 1.4978-2.3692 1.4384-2.4838 1.4733-2.8884 0.88-3.041-4.4587-22.175-29.757-22.563-29.832-0.36011-0.0694-2.1982 2.0874-5.8606 6.8766-2.9347 3.8377-5.4843 7.031-5.6656 7.0962-0.18133 0.0652-1.7407-1.2872-3.4653-3.0053-1.8976-1.8904-3.3102-3.0568-3.5778-2.9541-0.24325 0.0933-5.0984 6.5577-10.789 14.365-5.6908 7.8076-10.457 14.316-10.591 14.464-0.13401 0.14745-1.431-1.12-2.8822-2.8167-1.7654-2.064-2.8244-3.0528-3.2002-2.9881-0.30888 0.0532-3.6886 3.9589-7.5105 8.6794-3.8219 4.7205-7.1354 8.6543-7.3634 8.7418-0.22796 0.0875-1.161-0.21921-2.0733-0.68154s-1.9681-0.79614-2.3461-0.74181c-0.73316 0.10539-15.26 15.486-15.26 16.157-2e-5 0.20822 0.64796 0.90957 1.44 1.5586s1.44 1.3006 1.44 1.448c0 0.1474-1.1044 0.31005-2.4543 0.36146-1.3844 0.0527-2.5039 0.24338-2.568 0.43738-0.14888 0.45052 2.5864 4.4797 5.0506 7.4397 1.0731 1.289 1.8864 2.4082 1.8075 2.4872-0.079 0.079-0.99234 0.30309-2.0297 0.49804-2.8497 0.53556-2.7785 0.49431-2.5449 1.4741 0.71267 2.9891 4.8858 9.8021 5.8877 9.6121 0.68452-0.12978 5.884-10.301 5.7492-11.246-0.0769-0.53962-0.35205-0.71013-1.2692-0.78656l-1.171-0.0976 1.0549-2.3024c0.58019-1.2663 1.3875-3.3464 1.794-4.6224 0.40653-1.276 0.83534-2.32 0.95292-2.32 0.11757 0 0.97677 1.2442 1.9093 2.7648 1.7194 2.8037 4.7658 6.8125 6.0223 7.9247 0.93598 0.82852 0.86534 1.1504-0.25245 1.1504-0.51761 0-1.0328 0.1483-1.1448 0.32956-0.28258 0.45723 1.1222 2.7611 2.8664 4.7011 0.80273 0.89283 1.4595 1.7102 1.4595 1.8163s-0.72 0.19299-1.6 0.19299c-1.082 0-1.6 0.13187-1.6 0.40729 0 0.6269 2.1392 3.7579 3.5822 5.2429 0.71088 0.73158 1.2055 1.4709 1.0992 1.6428-0.10628 0.17198-0.84308 0.61815-1.6373 0.99149-1.8058 0.84884-1.8253 1.3117-0.16001 3.8055 1.237 1.8524 2.6058 3.2673 4.6359 4.7919l0.96 0.72096-0.96 0.79689c-0.528 0.43829-1.536 0.98959-2.24 1.2251s-1.3217 0.64327-1.3728 0.90612c-0.21631 1.1144 4.2685 6.7182 6.8128 8.5126 0.94355 0.66543 0.94903 0.68551 0.32 1.1712-0.352 0.27177-1.39 0.73704-2.3066 1.0339s-1.7376 0.72503-1.8245 0.95143c-0.17114 0.44599 2.076 3.6389 3.4457 4.8958 0.46496 0.42668 0.84538 0.89468 0.84538 1.04 0 0.38762-2.6185 0.32207-3.8165-0.0955-2.354-0.82062-1.8946 1.0634 1.3062 5.3558 0.81934 1.0988 1.4073 2.0802 1.3067 2.1808s-3.147 0.18024-6.7697 0.17681c-5.8735-6e-3 -9.7957-0.31539-14.507-1.1459-1.4334-0.25269-1.5167 0.0644-0.56702 2.1572 0.34813 0.76722 0.63613 1.575 0.64 1.795 5e-3 0.30167-1.1174 0.4-4.5672 0.4h-4.5742z" fill="#026738"/>
  <path d="m186.56 263.54c0-5.725-0.13375-10.411-0.31043-10.876l-0.31044-0.8165-21.299-0.1686v-34.24l10.56-0.0818c9.4728-0.0734 10.601-0.13733 10.96-0.62116 0.30063-0.40535 0.4-3.1086 0.4-10.881v-10.341l38.88 0.165 0.16 10.72 0.16 10.72 21.44 0.32v34.24l-10.72 0.17083c-5.896 0.094-10.756 0.20196-10.8 0.24-0.044 0.038-0.08 4.8932-0.08 10.789v10.72h-39.04z" fill="#026738"/>
  <g fill="#fff">
   <path d="m219.98 268.81 0.82084-0.31208v-21.136h10.059c5.7932 0 10.409-0.13297 10.884-0.31353l0.82464-0.31353-0.1676-24.493-21.6-0.1686v-10.37c0-5.7033-0.0874-10.597-0.19424-10.876-0.17316-0.45125-1.7666-0.50618-14.686-0.50618-12.919 0-14.513 0.0549-14.686 0.50618-0.10683 0.27839-0.19424 5.1725-0.19424 10.876v10.37l-21.6 0.1686-0.1676 24.493 0.82464 0.31353c0.47492 0.18056 5.0906 0.31353 10.884 0.31353h10.059v21.141l0.72 0.28941c0.99061 0.39817 27.175 0.41477 28.219 0.0179z"/>
   <path d="m75.471 307.7c2.6358-1.3357 2.668-0.98557-0.73861-8.0415-1.6787-3.477-3.0521-6.4258-3.0521-6.5529 0-0.25065 9.7879-5.1106 10.293-5.1106 0.16887 0 1.4681 2.3874 2.8872 5.3054 1.4191 2.918 2.791 5.3863 3.0487 5.4852 0.50647 0.19435 4.0692-1.3855 4.6193-2.0484 0.24626-0.29672-0.35602-1.8276-2.256-5.7344-1.4256-2.9313-2.5919-5.5005-2.5919-5.7095 0-0.39345 0.38979-0.60655 5.3834-2.9432l2.9834-1.396 2.8583 5.9025c1.5721 3.2464 3.0191 6.0019 3.2156 6.1234 0.1965 0.12145 1.3477-0.25835 2.5583-0.84398 1.592-0.77016 2.201-1.2355 2.201-1.6817 0-0.3393-1.8618-4.4155-4.1372-9.0582-3.3158-6.7652-4.2618-8.4413-4.7647-8.4413-1.0304 0-34.298 16.542-34.298 17.054 0 0.45308 8.4163 17.816 8.8426 18.242 0.41473 0.41472 1.4093 0.22887 2.9482-0.55095z"/>
   <path d="m335.76 307.01c2.0524-0.67063 4.0986-2.7386 5.5564-5.6157 0.97705-1.9282 1.2166-2.7827 1.3319-4.751 0.13108-2.2373 0.0679-2.5389-0.93168-4.4486-0.62748-1.1988-1.6696-2.5526-2.5122-3.2637-1.7-1.4345-26.824-14.689-27.414-14.463-0.64182 0.24629-2.7184 4.202-2.6068 4.9659 0.081 0.55471 2.5183 1.964 12.297 7.1104 6.7077 3.5302 12.581 6.6777 13.053 6.9943 0.47123 0.31662 1.0898 1.0643 1.3746 1.6616 0.48298 1.0128 0.47834 1.1896-0.0691 2.6243-0.32282 0.84611-1.0002 1.9521-1.5052 2.4577-1.69 1.6919-2.4042 1.4332-16.555-5.9952-6.9406-3.6435-12.788-6.5598-12.995-6.4806-0.60874 0.23359-2.7507 4.317-2.6407 5.0342 0.0775 0.50526 2.2984 1.8146 9.541 5.6248 18.956 9.9726 19.315 10.1 24.076 8.5442z"/>
   <path d="m351 279.12c2.4931-8.5446 4.859-17.481 4.7223-17.837-0.20368-0.53084-3.4972-1.5136-4.629-1.3813-0.80675 0.0943-0.91405 0.36317-2.7211 6.8182-1.0347 3.696-1.9414 6.783-2.015 6.86-0.12454 0.13039-11.018-2.7704-11.24-2.9933-0.0558-0.0558 0.63328-2.7219 1.5313-5.9247 1.2275-4.378 1.5447-5.9293 1.2782-6.2505-0.43718-0.52678-4.283-1.5992-4.8941-1.3647-0.2656 0.10192-1.0776 2.5064-2.0135 5.962-1.184 4.372-1.6911 5.7912-2.069 5.7912-0.27533 0-1.7184-0.34888-3.2068-0.77529-1.4884-0.42641-3.3182-0.93596-4.0662-1.1323-0.748-0.19638-1.3634-0.5315-1.3674-0.74472-4e-3 -0.21321 0.73658-3.074 1.6459-6.3572 0.90935-3.2832 1.5702-6.1863 1.4686-6.4512-0.19735-0.51424-3.1504-1.4993-4.4947-1.4993-0.49222 0-0.87612 0.21935-0.98007 0.56-0.8644 2.8327-4.9922 17.874-4.9922 18.191 0 0.22625 0.16673 0.5144 0.37052 0.64035 0.66759 0.41259 35.287 10.011 36.176 10.03 0.79815 0.017 0.9161-0.15177 1.4967-2.1415z"/>
   <path d="m72.523 275.98c2.5216-1.2896 3.6409-2.8695 5.0687-7.1542 1.5102-4.5322 3.6923-9.01 4.8248-9.9008 1.755-1.3805 4.0905-1.2666 5.6317 0.27467 0.72877 0.72877 0.91185 1.1973 0.91185 2.3333 0 1.8272-0.82212 2.887-2.8034 3.6138-2.4499 0.89881-2.4727 0.95182-1.6747 3.9091 0.38266 1.4181 0.89433 2.6546 1.1371 2.7478 0.24272 0.0931 1.2523-0.10968 2.2435-0.45071 4.9837-1.7147 7.4996-5.2142 7.0684-9.8319-0.38054-4.0751-2.4853-7.0614-6.2034-8.8013-1.8562-0.86863-2.2819-0.94545-4.5206-0.81585-2.9561 0.17112-5.2079 1.2381-7.0644 3.3472-1.1658 1.3244-2.9079 5.0748-5.1488 11.084-1.1226 3.0105-1.8376 3.8377-3.7806 4.3742-2.4145 0.66668-4.7156-0.78754-5.5259-3.4922-0.83632-2.7914 0.49186-4.7276 3.8914-5.6727 1.0285-0.28594 1.9504-0.72967 2.0488-0.98608 0.09839-0.2564 0.02381-1.0628-0.16575-1.7919-0.18956-0.72915-0.4845-1.8657-0.65544-2.5257-0.26542-1.0248-0.44083-1.2-1.2015-1.2-1.169 0-3.7578 0.88548-5.1665 1.7672-1.5685 0.98172-3.4659 3.1643-4.2716 4.9137-0.52519 1.1403-0.67555 2.0657-0.6563 4.0392 0.04128 4.2322 1.8751 7.9206 4.7863 9.6267 2.5274 1.4811 3.6102 1.7503 6.6001 1.6404 2.3235-0.0854 3.0786-0.25638 4.6263-1.0479z"/>
   <path d="m300.32 153.28c3.6174-7.0956 4.2435-8.1391 4.8-8 0.352 0.088 1.792 0.16 3.2 0.16 3.1472 0 4.9887-0.79532 7.3724-3.1842 2.4251-2.4304 3.1321-4.1949 2.964-7.3978-0.17848-3.4005-0.9244-4.7025-5.6795-9.9138-2.8772-3.1532-3.8173-3.9941-4.3814-3.9194-0.42062 0.0557-5.5958 4.6036-12.489 10.975-14.218 13.143-14.827 13.721-14.827 14.107 0 0.52649 2.9071 3.6533 3.3966 3.6533 0.25681 0 3.136-2.4662 6.3981-5.4806l5.9312-5.4806 1.1234 1.0806c1.9844 1.9088 2.0787 1.4704-2.1231 9.8684-2.1154 4.2279-3.8461 7.8453-3.8461 8.0386 0 0.65425 2.9703 3.843 3.4906 3.7473 0.30638-0.0564 2.1674-3.3459 4.6694-8.2537z"/>
  </g>
  <path d="m305.44 140.05c-0.528-0.24413-1.7985-1.3998-2.8233-2.5682l-1.8633-2.1243 2.5033-2.3356c1.3768-1.2846 3.1938-2.9635 4.0376-3.7309l1.5343-1.3953 1.5941 1.5701c3.7294 3.6733 3.8061 6.9562 0.23 9.8338-1.3991 1.1258-3.6881 1.4553-5.2126 0.75044z" fill="#026738"/>
  <g fill="#fff">
   <path d="m120.54 155.76c7.4606-8.142 7.7814-8.5092 7.7814-8.9061 0-0.59636-2.6674-2.851-3.3599-2.84-0.41378 7e-3 -2.27 1.813-5.2493 5.1085-2.6378 2.9177-4.7592 5.0081-4.96 4.8874-0.72888-0.43812-8.8308-7.9072-8.8308-8.141 0-0.13462 1.8-2.2236 4-4.6421s4-4.5648 4-4.7694c0-0.51782-2.7617-3.0136-3.3347-3.0136-0.25797 0-2.2345 1.944-4.3922 4.32s-4.0869 4.32-4.287 4.32c-0.30927 0-4.3359-3.4877-6.8158-5.9036l-0.74973-0.73037 4.2069-4.603c2.3138-2.5316 4.3552-4.8681 4.5366-5.1921 0.27371-0.4891 0.0797-0.82867-1.1428-2-0.80985-0.77597-1.6815-1.4109-1.9371-1.4109-0.44129 0-11.229 11.495-12.26 13.064-0.469 0.71366-0.4251 0.80656 1.0836 2.2929 3.8284 3.7717 25.904 23.683 26.257 23.683 0.21575 0 2.6699-2.4857 5.4537-5.5237z"/>
   <path d="m134.3 141.87c1.3214-0.91008 1.7034-1.36 1.7034-2.0064 0-0.45828-0.58287-3.8337-1.2953-7.501-0.7124-3.6673-1.2505-6.8021-1.1958-6.9663 0.0547-0.16419 2.9056 1.5055 6.3353 3.7104 3.4297 2.2049 6.5238 4.007 6.8758 4.0048 0.8219-5e-3 3.68-2.0925 3.68-2.6874 0-0.24914-3.8789-2.922-8.6197-5.9397-4.7408-3.0177-8.7552-5.6564-8.9208-5.8639-0.25204-0.3158-3.5795-16.557-3.5795-17.472 0-0.16495-0.22848-0.5284-0.50774-0.80765-0.46365-0.46366-0.61639-0.44668-1.7591 0.19556-0.68825 0.38682-1.5606 1.0325-1.9387 1.4349l-0.68732 0.73161 1.1906 5.85c0.6548 3.2175 1.2614 6.102 1.348 6.41 0.0866 0.308 0.0345 0.56-0.11578 0.56-0.15027 0-2.4728-1.4396-5.1611-3.1992-6.6794-4.3718-5.8819-4.0954-7.9172-2.744-1.0812 0.71791-1.7316 1.3774-1.7316 1.7558 0 0.44136 2.1306 1.9733 7.84 5.6371 4.312 2.7671 7.8417 5.1209 7.8438 5.2307 0.0216 1.1409 3.8954 20.045 4.1772 20.385 0.5089 0.61318 0.49693 0.61671 2.4356-0.7185z"/>
   <path d="m277.98 140.05c0.56365-0.83259 0.94987-1.7091 0.85827-1.9478s-2.6046-2.0537-5.5844-4.0333c-2.9798-1.9796-5.5712-3.7841-5.7586-4.0098-0.25538-0.30772 0.47589-1.6382 2.9204-5.3132 1.7936-2.6965 3.382-5.0348 3.5298-5.1962 0.15673-0.17116 2.3108 1.0623 5.1694 2.96 2.6954 1.7894 5.1412 3.2534 5.4352 3.2534 0.56658 0 2.4853-2.5298 2.4853-3.2768 0-0.24282-2.2373-1.9449-4.9718-3.7824-3.4728-2.3336-4.9336-3.4922-4.8451-3.843 0.17414-0.69035 5.2931-8.298 5.5832-8.2975 0.12852 2e-4 2.6097 1.584 5.5137 3.5196 2.904 1.9356 5.517 3.5194 5.8066 3.5196 0.28965 2.1e-4 0.99169-0.72435 1.5601-1.6101 0.97306-1.5164 1.0022-1.645 0.4993-2.2007-1.0905-1.205-15.2-10.347-15.683-10.162-0.80918 0.31051-20.715 30.425-20.493 31.003 0.24678 0.64311 16.1 11.198 16.589 11.044 0.19893-0.0624 0.82285-0.79473 1.3865-1.6273z"/>
   <path d="m159.46 126.92c0.65253-0.27265 1.2639-0.69755 1.3585-0.94424 0.0947-0.24669-0.98282-3.5265-2.3944-7.2886s-2.463-6.9419-2.3366-7.0664 1.411-0.66101 2.8545-1.1922c1.4436-0.53116 3.1835-1.3186 3.8665-1.7497 5.0578-3.1928 5.837-10.07 1.8256-16.112-2.0556-3.096-5.5739-4.8519-8.9302-4.4569-2.2175 0.26099-12.306 4.0537-12.513 4.7039-0.16055 0.50588 12.104 33.678 12.753 34.492 0.39894 0.50087 1.7462 0.35268 3.5158-0.38668z"/>
  </g>
  <path d="m151.84 101.11c-1.1904-3.1732-2.1085-5.8177-2.0404-5.8766 0.2944-0.25467 3.9692-1.5083 5.2871-1.8036 2.0512-0.45968 3.679 0.05012 4.9092 1.5375 1.0736 1.2981 1.9277 3.7112 1.9277 5.4467 0 1.4488-1.1591 3.4586-2.4576 4.2611-0.99008 0.61191-4.7775 2.2044-5.2427 2.2044-0.12042 0-1.1929-2.5962-2.3832-5.7694z" fill="#026738"/>
  <path d="m254.62 118.25 0.0567-9.2568 1.2233-0.36586c4.9175-1.4707 7.8482-5.4376 7.9136-10.711 0.0243-1.9628-0.11505-2.6835-0.76511-3.9563-1.225-2.3986-3.7038-4.4593-6.8004-5.6534-6.9052-2.6629-8.4952-3.1524-8.9849-2.7662-0.47595 0.37537-12.7 33.312-12.7 34.219 0 0.62292 0.48027 0.96906 2.2507 1.6221 2.085 0.76906 2.7489 0.69574 3.1232-0.3449 1.4252-3.9621 5.2579-14.336 5.3198-14.399 0.13273-0.13497 3.2037 0.95207 3.6263 1.2836 0.3019 0.23686 0.4012 2.4035 0.4049 8.8346 3e-3 4.6864 0.12022 8.7025 0.26118 8.9245 0.31212 0.49169 3.8655 1.9707 4.5339 1.8871 0.41274-0.0516 0.48794-1.3571 0.53669-9.3168z" fill="#fff"/>
  <path d="m249.92 103.16c-1.32-0.45574-2.5207-0.94012-2.6683-1.0764-0.26236-0.24232 3.084-9.8083 3.6231-10.357 0.33655-0.34263 4.4642 1.1977 5.5968 2.0885 3.0642 2.4103 1.9351 8.413-1.8525 9.8481-1.311 0.49672-2.0248 0.42031-4.6992-0.50304z" fill="#026738"/>
  <path d="m191.87 118.23c5.0444-0.61958 9.3154-1.2153 9.491-1.3239 0.33389-0.20636 0.14968-3.6366-0.22812-4.2479-0.30311-0.49043-1.4921-0.42946-8.4934 0.43558-3.432 0.42403-6.3266 0.67461-6.4324 0.55683-0.10584-0.11778-1.0248-7.1981-2.042-15.734-1.0173-8.536-1.9889-15.789-2.1591-16.118-0.2705-0.52258-0.54968-0.57059-2.2196-0.38166-2.7969 0.31644-2.8263 0.3394-2.8314 2.2137-6e-3 2.1874 3.7995 34.084 4.1764 35.006 0.16621 0.40658 0.57133 0.72 0.93062 0.72 0.34995 0 4.7635-0.50693 9.808-1.1265z" fill="#fff"/>
  <path d="m223.36 117.28c5.1688-2.6729 8.3013-12.092 7.9211-23.817-0.12345-3.8071-0.28186-4.9998-0.86477-6.5112-1.0613-2.7517-2.4589-4.3846-4.7824-5.5874-1.7617-0.91197-2.32-1.0419-4.4655-1.0392-1.8937 0.0026-2.8164 0.17316-4.052 0.74979-4.7491 2.2162-7.5651 9.3884-8.0636 20.537-0.36209 8.0991 1.3627 12.94 5.4676 15.346 2.4137 1.4145 6.4433 1.5614 8.8396 0.32227z" fill="#fff"/>
  <path d="m217.41 112.97c-0.98269-0.39754-2.3026-2.1017-2.6798-3.4599-1.1372-4.0946 0.38111-17.332 2.4672-21.51 0.71756-1.4372 1.1614-1.9002 2.4201-2.5242 1.3485-0.66863 1.6905-0.71957 2.7333-0.40714 1.48 0.44343 2.718 1.7355 3.2687 3.4114 1.3128 3.9952-0.51598 19.067-2.7082 22.32-1.3859 2.0566-3.6114 2.9343-5.5013 2.1698z" fill="#026738"/>
  <path d="m59.019 135.76c0.2492-0.308 1.2733-1.784 2.2757-3.28 9.0242-13.468 22.571-28.073 35.665-38.451 27.108-21.486 59.055-34.175 93.76-37.239 6.1609-0.54411 21.622-0.62451 27.714-0.14413 34.829 2.7464 67.494 15.48 94.686 36.91 13.244 10.438 25.177 23.118 35.381 37.596 1.724 2.4462 3.2871 4.3532 3.5521 4.3336 0.78166-0.0577 34.827-29.304 34.827-29.917 0-0.62054-3.7989-6.0357-7.9466-11.328-21.219-27.072-47.67-48.412-78.53-63.356-42.919-20.783-91.777-27.175-138-18.054-50.179 9.9009-93.771 36.516-128.33 78.351-3.6737 4.4473-11.35 14.862-11.351 15.399-1.86e-4 0.27508 0.39566 0.87205 0.87966 1.3266 1.8217 1.7109 34.42 28.413 34.687 28.413 0.1535 0 0.48297-0.252 0.73218-0.56z" fill="#fff"/>
  <g fill="#026738">
   <path d="m64.8 95.331c-5.808-6.1649-11.408-12.145-12.445-13.289l-1.8846-2.0798 1.0767-1.1109c0.59218-0.61098 1.2276-1.0706 1.412-1.0213 0.18444 0.04927 2.4792 2.3576 5.0995 5.1296 4.4931 4.7532 5.3326 5.4456 5.7614 4.7517 0.09798-0.15854-0.39752-3.991-1.1011-8.5165-0.7036-4.5255-1.2793-8.5426-1.2793-8.9268 0-0.67641 2.385-3.3502 2.7039-3.0313 0.08559 0.08559 0.73839 3.8152 1.4507 8.288 0.71227 4.4728 1.4009 8.2329 1.5302 8.3558 0.12937 0.12288 5.1312 2.1299 11.115 4.46 5.984 2.3301 11.019 4.3612 11.19 4.5134 0.19037 0.1702-0.20297 0.78945-1.0211 1.6076l-1.3308 1.3308-9.5193-3.9c-5.8073-2.3792-9.6343-3.785-9.8142-3.605-0.16868 0.16868-0.197 1.2704-0.06614 2.5734 0.26473 2.6361 0.17754 2.5106 6.122 8.8121 2.0899 2.2154 3.852 4.1798 3.9158 4.3651 0.11047 0.32126-1.8079 2.5327-2.1787 2.5115-0.09748-6e-3 -4.9292-5.0541-10.737-11.219z"/>
   <path d="m332.54 103.9c-0.56253-0.58038-1.0228-1.191-1.0228-1.3568 0-0.16589 2.5761-2.895 5.7246-6.0648l5.7246-5.7632 3.7382-9.44c2.056-5.192 3.8743-9.5792 4.0407-9.7493 0.19299-0.19736 0.72781 0.11598 1.4775 0.86562l1.1749 1.1749-2.6643 6.8144c-2.874 7.3509-3.2344 8.5744-2.5252 8.5744 0.244 0 3.6656-1.2325 7.6036-2.7388l7.1599-2.7388 1.2343 1.2052c0.85948 0.83926 1.1124 1.2723 0.83276 1.4261-0.22086 0.12146-4.3957 1.7429-9.2774 3.6032-4.8818 1.8603-9.2738 3.5933-9.76 3.8511-0.48627 0.25776-3.3305 2.9264-6.3206 5.9303-2.99 3.0039-5.5898 5.4617-5.7772 5.4617-0.18742 0-0.80099-0.47485-1.3635-1.0552z"/>
   <path d="m311.43 85.627c-0.58021-0.41267-1.137-0.83239-1.2374-0.93272-0.13108-0.13108 15.344-21.511 18.846-26.038 0.46295-0.5983-0.0442-1.1835-2.714-3.1313-1.364-0.99517-2.4748-1.9075-2.4685-2.0274 6e-3 -0.11991 0.35037-0.63237 0.76454-1.1388 0.51223-0.62635 0.89229-0.83549 1.1885-0.65403 1.8771 1.15 14.216 10.508 14.292 10.839 0.053 0.23204-0.23498 0.80403-0.64 1.2711l-0.73635 0.84919-2.8329-2.0923c-1.5581-1.1508-2.956-2.0923-3.1064-2.0923-0.36876 0-0.64112 0.35645-10.634 13.917-4.7973 6.5104-8.9349 11.869-9.1948 11.909-0.25984 0.03939-0.94717-0.26602-1.5274-0.67868z"/>
   <path d="m99.313 83.187c-0.64892-0.98059-0.76598-1.3826-0.48454-1.664 0.20409-0.20409 0.37108-0.63761 0.37108-0.96337 0-0.49758-13.829-21.053-15.275-22.705-0.32066-0.3663-0.75979-0.48826-1.3401-0.37219-0.74104 0.14821-0.98905-0.0175-1.7524-1.171-0.48903-0.73898-0.76845-1.4482-0.62093-1.5761 0.91942-0.79704 5.5462-3.8559 5.8324-3.8559 0.1907 0 0.72926 0.57803 1.1968 1.2845 0.81708 1.2347 0.82811 1.3088 0.28447 1.9095-0.31107 0.34373-0.49597 0.8817-0.41088 1.1955 0.08509 0.31378 3.5718 5.5385 7.7482 11.611l7.5935 11.04 1.2087-0.08095c1.0972-0.07348 1.2891 0.04055 2.08 1.2358 0.47925 0.7242 0.75067 1.4202 0.60315 1.5467-0.89725 0.76943-5.5834 3.8584-5.8534 3.8584-0.17916 0-0.71076-0.58181-1.1814-1.2929z"/>
   <path d="m294 74.219c-1.5774-0.81343-1.84-1.077-1.84-1.8468 0-0.49386 0.792-6.4212 1.76-13.172 1.9064-13.295 1.9806-14.08 1.3306-14.08-0.24022 0-3.0728 5.0761-6.4284 11.52-3.2994 6.336-6.063 11.52-6.1412 11.52-0.42564 0-3.3209-1.6553-3.3209-1.8987 0-0.15835 3.6684-7.3199 8.152-15.915 6.3269-12.128 8.2724-15.603 8.6901-15.521 1.2004 0.23541 3.958 2.0525 3.958 2.6081 0 0.31489-0.79107 6.1691-1.7579 13.009-0.96686 6.8403-1.7589 12.689-1.76 12.997-7e-3 1.8014 1.3987-0.4259 6.7134-10.64 3.2052-6.16 5.902-11.2 5.9928-11.2 0.39516 0 3.2917 1.7266 3.2917 1.9622 0 0.45272-16.259 31.458-16.536 31.533-0.1453 0.03947-1.0922-0.35521-2.1042-0.87707z"/>
   <path d="m118.28 72.08c-2.0159-3.9217-14.924-31.215-14.924-31.556 0-0.38281 3.3063-2.1241 4.0332-2.1241 0.15021 0 4.6017 4.32 9.8921 9.6 8.9216 8.904 11.131 10.775 10.545 8.9308-0.11682-0.36808-2.5745-5.5989-5.4616-11.624-2.887-6.0251-5.2492-11.121-5.2492-11.324 0-0.3959 2.2616-1.6667 2.9472-1.6561 0.29383 0.0046 14.819 29.601 15.88 32.357 0.0588 0.1528-0.80478 0.709-1.9191 1.236l-2.0261 0.95818-10.083-10.079c-8.9506-8.9473-11.199-10.906-11.199-9.7564 0 0.17746 2.5315 5.6135 5.6256 12.08s5.6501 11.889 5.68 12.05c0.0611 0.3281-2.2896 1.7742-2.8974 1.7823-0.21548 0.0029-0.59534-0.39074-0.84413-0.87474z"/>
   <path d="m263.04 60.197c-4.9474-1.5995-6.7032-3.5881-6.9545-7.8766-0.12801-2.1843-0.0191-2.5699 4.3802-15.513 2.4813-7.2999 4.6236-13.385 4.7606-13.522 0.37076-0.37077 3.2536 0.70407 3.2536 1.2131 0 0.2412-1.944 6.2247-4.32 13.297-4.6202 13.752-4.861 14.854-3.6679 16.784 0.92682 1.4996 3.1981 2.5405 5.5438 2.5405 1.8233 0 1.9129-0.04114 3.2-1.4699 1.2372-1.3733 1.6162-2.3355 5.7669-14.64 2.4435-7.2436 4.5418-13.17 4.663-13.17 0.71601 0 3.2141 1.0808 3.2129 1.3901-3e-3 0.6475-8.5895 25.739-9.2553 27.044-2.026 3.9712-5.9425 5.4228-10.583 3.9223z"/>
   <path d="m147.59 58.057c-3.1111-1.5503-6.1691-5.8244-8.004-11.187-1.725-5.0414-2.1226-7.2133-2.1364-11.67-0.0126-4.0821 0.0365-4.428 0.89254-6.2804 1.6623-3.5972 4.1304-5.2796 7.7452-5.2796 3.2584 0 5.8547 1.8195 7.6056 5.3299 1.2491 2.5044 1.2263 2.7267-0.32781 3.1924-1.5485 0.46403-1.5329 0.47506-2.7505-1.9511-1.207-2.4052-2.765-3.6512-4.5655-3.6512-2.8694 0-4.2114 1.4825-4.9403 5.4574-1.0097 5.5065 1.9197 16.407 5.6414 20.992 1.2048 1.4843 3.3453 2.6701 4.8197 2.6701 1.2546 0 2.9355-1.1422 3.769-2.5611 0.95154-1.6198 0.89738-5.4151-0.12488-8.7504-0.42337-1.3813-0.97297-2.5895-1.2213-2.6848-0.24837-0.0953-1.301 0.06288-2.3392 0.35152-1.0382 0.28864-2.0946 0.52481-2.3476 0.52481-0.49355 0-1.354-2.1423-1.0019-2.4944 0.38371-0.38371 8.0076-2.5628 8.2287-2.352 0.25261 0.24087 5.3836 17.227 5.3836 17.822 0 0.31092-1.5239 1.1041-2.1212 1.1041-0.0582 0-0.3996-0.576-0.75876-1.28-0.77146-1.5122-1.0791-1.5801-1.8109-0.4-2.3396 3.7731-5.9498 4.9334-9.6353 3.0968z"/>
   <path d="m234.18 53.297c-2.7315-1.0417-4.6502-3.3791-5.5223-6.7272-1.5397-5.9114 0.59595-18.889 3.9668-24.104 2.282-3.5307 5.4592-5.0191 9.1371-4.2805 3.3728 0.67736 5.3325 2.165 6.5865 5 2.4106 5.4495 0.34487 20.13-3.6872 26.205-0.67917 1.0232-1.8959 2.2532-2.941 2.973-1.6108 1.1094-2.0031 1.2353-4.0703 1.3061-1.3816 0.04731-2.7558-0.10018-3.4695-0.37234z"/>
  </g>
  <path d="m239.41 50.048c1.3402-0.68457 2.7208-2.5969 3.6134-5.0051 2.1829-5.8893 3.4657-17.438 2.2813-20.54-0.59677-1.5626-2.2857-3.2556-3.5692-3.5777-2.4809-0.62266-5.0948 0.89503-6.5128 3.7815-2.4592 5.0059-4.3286 17.735-3.2009 21.796 0.43107 1.5524 2.3119 3.6505 3.6148 4.0324 1.1337 0.33228 2.5197 0.15343 3.7734-0.48692z" fill="#fff"/>
  <path d="m206.92 50.731c-3.6142-1.2884-6.2734-4.9007-7.6207-10.352-0.57739-2.3362-0.45843-10.63 0.19564-13.639 1.9365-8.9076 6.7763-13.109 13.084-11.357 2.7602 0.76648 5.3646 4.5444 6.0157 8.7265 0.44031 2.8282 0.31667 3.0904-1.4571 3.0904-1.6267 0-2.1013-0.51447-2.1013-2.278 0-1.877-1.0122-4.7722-2.0509-5.8661-1.399-1.4734-2.999-1.7183-4.9381-0.7559-3.5043 1.7391-5.491 7.5625-5.491 16.095 0 8.35 2.4728 13.285 6.6568 13.285 2.8071 0 4.6358-2.3975 5.2886-6.9334l0.40679-2.8266 3.7436-0.1948-0.19089 2.0174c-0.41377 4.373-2.1185 8.0442-4.5521 9.8028-2.3082 1.668-4.5632 2.0506-6.9893 1.1857z" fill="#026738"/>
 </g>
</svg>
